<svg id="Layer_1" data-name="Layer 1" xmlns="http://www.w3.org/2000/svg" viewBox="0 0 68 92"><defs><style>.cls-1{fill:#fff;}</style></defs><title>resume</title><path class="cls-1" d="M22,4a6,6,0,0,0-6,6V90a6,6,0,0,0,6,6H78a6,6,0,0,0,6-6V10a6,6,0,0,0-6-6Zm0,4H78a2,2,0,0,1,2,2V90a2,2,0,0,1-2,2H22a2,2,0,0,1-2-2V10A2,2,0,0,1,22,8ZM50,20a7,7,0,1,0,7,7A7,7,0,0,0,50,20Zm0,4a3,3,0,1,1-3,3A3,3,0,0,1,50,24Zm0,12a18.43,18.43,0,0,0-9.44,2.66A11,11,0,0,0,35,48a2.08,2.08,0,0,0,2,2H63a2.08,2.08,0,0,0,2-2,11,11,0,0,0-5.56-9.34A18.43,18.43,0,0,0,50,36Zm0,4a15.08,15.08,0,0,1,7.31,2.06A7.32,7.32,0,0,1,60.72,46H39.28a7.32,7.32,0,0,1,3.41-3.94A15.08,15.08,0,0,1,50,40ZM30,56a2,2,0,1,0,0,4H70a2,2,0,0,0,0-4Zm0,10a2,2,0,1,0,0,4H70a2,2,0,0,0,0-4Zm0,10a2,2,0,1,0,0,4H70a2,2,0,0,0,0-4Z" transform="translate(-16 -4)"/></svg>